<svg id="Layer_1" data-name="Layer 1" xmlns="http://www.w3.org/2000/svg" viewBox="0 0 81.5 81.1">
  <defs>
    <style>
      .cls-1 {
        fill: #ffcb08;
      }
    </style>
  </defs>
  <title>Artboard 1</title>
  <path class="cls-1" d="M35.2,78.6a11.5,11.5,0,0,0,2.9-2.7,16,16,0,0,0,3.5-7c.6-2.5.9-4,.1-4.9s-2.4-.6-5.1-.8a22.7,22.7,0,0,1-6.5-2.1c-5.7-2.5-8.4-9-9-10.3-2.7-6.5-3.3-16.9,3.6-24.7a22.9,22.9,0,0,1,25.1-6.2c8.9,3.4,12.3,11.8,12.9,13.4,3.3,8.2,1.1,15.5-.2,19.8C57.3,70.2,41.4,78.4,37,79.4c-.3,0-1.4.2-1.4.4s6.8.6,13.5-.8a43.6,43.6,0,0,0,9.2-2.9A38.8,38.8,0,0,0,74.8,60.9a40,40,0,0,0,4.6-29.7A40,40,0,0,0,9.4,16,40.1,40.1,0,0,0,3.8,55.4C8.1,66.1,18.7,78.2,31.2,78.8A15.5,15.5,0,0,0,35.2,78.6Z"/>
</svg>
